:version 1.10
:name ASF
:units
  mass 1
  length 1
  angle deg
:documentation
  ASF file generated by Kaydara
:root
  axis xyz
  order  tx ty tz rx ry rz
  position 0 0 0
  orientation 0 0 0
:bonedata
  begin
    id 1
    name lfemurDummy
    direction 0.61522 -0.761478 0.204097
    length 5.68318
    axis 0 -0 0 xyz
  end
  begin
    id 2
    name lfemur
    direction 0.34202 -0.939693 -5.84747e-008
    length 16.9147
    axis 0 -0 20 xyz
    dof rx ry rz
    limits( -inf , inf )
( -inf , inf )
( -inf , inf )

  end
  begin
    id 3
    name ltibia
    direction 0.34202 -0.939693 1.20839e-009
    length 18.0532
    axis 0 -0 20 xyz
    dof rz ry rx
    limits( -inf , inf )
( -inf , inf )
( -inf , inf )

  end
  begin
    id 4
    name lfoot
    direction 0.0841971 -0.23133 0.969225
    length 5.23822
    axis -90 7.62852e-016 20 xyz
    dof ry rx rz
    limits( -inf , inf )
( -inf , inf )
( -inf , inf )

  end
  begin
    id 5
    name ltoes
    direction 0 0 0
    length 0
    axis 0 0 0 xyz
    dof rz ry rx
    limits( -inf , inf )
( -inf , inf )
( -inf , inf )

  end
  begin
    id 6
    name rfemurDummy
    direction -0.625247 -0.75382 0.202044
    length 5.74091
    axis 0 -0 0 xyz
  end
  begin
    id 7
    name rfemur
    direction -0.34202 -0.939693 -1.47013e-008
    length 16.4922
    axis 0 -0 -20 xyz
    dof rx ry rz
    limits( -inf , inf )
( -inf , inf )
( -inf , inf )

  end
  begin
    id 8
    name rtibia
    direction -0.34202 -0.939693 -7.74345e-010
    length 18.2421
    axis 0 -0 -20 xyz
    dof rz ry rx
    limits( -inf , inf )
( -inf , inf )
( -inf , inf )

  end
  begin
    id 9
    name rfoot
    direction -0.124331 -0.341598 0.931586
    length 5.45787
    axis -90 -7.62852e-016 -20 xyz
    dof ry rx rz
    limits( -inf , inf )
( -inf , inf )
( -inf , inf )

  end
  begin
    id 10
    name rtoes
    direction 0 0 0
    length 0
    axis 0 0 0 xyz
    dof rz ry rx
    limits( -inf , inf )
( -inf , inf )
( -inf , inf )

  end
  begin
    id 11
    name lowerbackDummy
    direction 0 0 0
    length 0
    axis 0 -0 0 xyz
  end
  begin
    id 12
    name lowerback
    direction -0.0218484 0.994884 -0.0986304
    length 4.45607
    axis 0 -0 0 xyz
    dof rx ry rz
    limits( -inf , inf )
( -inf , inf )
( -inf , inf )

  end
  begin
    id 13
    name upperback
    direction -0.00973057 0.999717 -0.0217111
    length 4.47449
    axis 0 -0 0 xyz
    dof rx ry rz
    limits( -inf , inf )
( -inf , inf )
( -inf , inf )

  end
  begin
    id 14
    name thorax
    direction -0.000928171 0.999699 0.0245198
    length 4.50973
    axis 0 -0 0 xyz
    dof rx ry rz
    limits( -inf , inf )
( -inf , inf )
( -inf , inf )

  end
  begin
    id 15
    name rclavicle
    direction -0.9009 0.425937 -0.0834055
    length 7.28587
    axis 0 -0 0 xyz
    dof rx ry rz
    limits( -inf , inf )
( -inf , inf )
( -inf , inf )

  end
  begin
    id 16
    name rhumerus
    direction -1 -2.23604e-007 -1.42637e-007
    length 13.5704
    axis 180 30 90 xyz
    dof rx ry rz
    limits( -inf , inf )
( -inf , inf )
( -inf , inf )

  end
  begin
    id 17
    name rradius
    direction -1 5.68281e-008 -4.4952e-007
    length 8.06782
    axis 180 30 90 xyz
    dof rz ry rx
    limits( -inf , inf )
( -inf , inf )
( -inf , inf )

  end
  begin
    id 18
    name rwrist
    direction -1 1.51393e-007 1.38143e-007
    length 4.03391
    axis -90 -90 0 xyz
    dof rz rx ry
    limits( -inf , inf )
( -inf , inf )
( -inf , inf )

  end
  begin
    id 19
    name rthumb
    direction 0 0 0
    length 0
    axis 0 0 0 xyz
    dof ry rx rz
    limits( -inf , inf )
( -inf , inf )
( -inf , inf )

  end
  begin
    id 20
    name rhand
    direction -1 -3.34077e-007 -5.59631e-007
    length 1.29744
    axis -90 -90 0 xyz
    dof ry rx rz
    limits( -inf , inf )
( -inf , inf )
( -inf , inf )

  end
  begin
    id 21
    name rfingers
    direction 0 0 0
    length 0
    axis 0 0 0 xyz
    dof rz ry rx
    limits( -inf , inf )
( -inf , inf )
( -inf , inf )

  end
  begin
    id 22
    name lclavicle
    direction 0.940017 0.332249 -0.0773232
    length 8.29589
    axis 0 -0 0 xyz
    dof rx ry rz
    limits( -inf , inf )
( -inf , inf )
( -inf , inf )

  end
  begin
    id 23
    name lhumerus
    direction 1 7.41158e-008 -1.44768e-008
    length 12.0042
    axis 180 -30 -90 xyz
    dof rx ry rz
    limits( -inf , inf )
( -inf , inf )
( -inf , inf )

  end
  begin
    id 24
    name lradius
    direction 1 -1.32972e-007 3.10821e-007
    length 8.1902
    axis 180 -30 -90 xyz
    dof rz ry rx
    limits( -inf , inf )
( -inf , inf )
( -inf , inf )

  end
  begin
    id 25
    name lwrist
    direction 1 3.08957e-007 4.01394e-007
    length 4.09509
    axis -90 90 0 xyz
    dof rz rx ry
    limits( -inf , inf )
( -inf , inf )
( -inf , inf )

  end
  begin
    id 26
    name lthumb
    direction 0 0 0
    length 0
    axis 0 0 0 xyz
    dof ry rx rz
    limits( -inf , inf )
( -inf , inf )
( -inf , inf )

  end
  begin
    id 27
    name lhand
    direction 1 -1.64125e-007 -6.99514e-007
    length 1.37229
    axis -90 90 0 xyz
    dof ry rx rz
    limits( -inf , inf )
( -inf , inf )
( -inf , inf )

  end
  begin
    id 28
    name lfingers
    direction 0 0 0
    length 0
    axis 0 0 0 xyz
    dof rz ry rx
    limits( -inf , inf )
( -inf , inf )
( -inf , inf )

  end
  begin
    id 29
    name lowerneck
    direction -0.030798 0.998024 0.0547665
    length 3.93918
    axis 0 -0 0 xyz
    dof rx ry rz
    limits( -inf , inf )
( -inf , inf )
( -inf , inf )

  end
  begin
    id 30
    name upperneck
    direction 0.0531588 0.996611 -0.0627736
    length 3.95491
    axis 0 -0 0 xyz
    dof rx ry rz
    limits( -inf , inf )
( -inf , inf )
( -inf , inf )

  end
  begin
    id 31
    name head
    direction 0 0 0
    length 0
    axis 0 0 0 xyz
    dof rx ry rz
    limits( -inf , inf )
( -inf , inf )
( -inf , inf )

  end
:hierarchy
  begin
    root lfemurDummy rfemurDummy lowerbackDummy
    lfemurDummy lfemur
    lfemur ltibia
    ltibia lfoot
    lfoot ltoes
    rfemurDummy rfemur
    rfemur rtibia
    rtibia rfoot
    rfoot rtoes
    lowerbackDummy lowerback
    lowerback upperback
    upperback thorax
    thorax rclavicle lclavicle lowerneck
    rclavicle rhumerus
    rhumerus rradius
    rradius rwrist
    rwrist rthumb rhand
    rhand rfingers
    lclavicle lhumerus
    lhumerus lradius
    lradius lwrist
    lwrist lthumb lhand
    lhand lfingers
    lowerneck upperneck
    upperneck head
  end

:SAMPLES-PER-SECOND 30
:FULLY-SPECIFIED
:DEGREES
105
root  -5.932866494 41.5179996 8.498533504 27.02600098 -61.16799927 -25.60302734
lowerback  8.624210358 2.819020033 -2.254179955
upperback  4.061729908 3.350389957 -4.224329948
thorax  -0.4921759963 1.618049979 -3.400789976
lowerneck  2.153009892 5.435490131 -6.958630085
upperneck  11.28299999 6.270339966 10.47140026
head  2.39102006 3.0947299 4.369750023
lclavicle  0 -9.442270133e-015 7.951389973e-016
lhumerus  -7.449639797 -13.59420013 72.15110016
lradius  2.811901295e-031 -2.135896801e-031 142.7799988
lwrist  -7.062250077e-031 -1.765562519e-031 13.81719971
lhand  -1.496451383e-031 -27.76390076 20.11240005
lfingers  90 7.125020027 -90
lthumb  89.89689403 5.08795885 91.16245106
rclavicle  0 -9.442270133e-015 7.951389973e-016
rhumerus  -31.17449951 9.491080284 -84.23020172
rradius  -2.123065527e-031 2.821601816e-031 126.9589996
rwrist  1.059337512e-030 -3.531125038e-031 0.2187809944
rhand  -7.920061211e-032 -33.2840004 9.303460121
rfingers  -90 -7.125020027 -90
rthumb  -92.93752616 -24.25625642 -97.11982154
rfemur  1.312229991 13.7670002 17.23859978
rtibia  -0 0 33.81389999
rfoot  -0 6.247019768 -12.66590023
rtoes  5.373923086 19.29304026 -105.8922705
lfemur  -33.67499924 -3.893810034 5.606709957
ltibia  -0 0 38.28179932
lfoot  4.439526794e-032 6.15846014 -2.176909924
ltoes  -4.250644065 -19.5611806 -102.515957
106
root  -5.772933434 41.39844339 8.467488777 27.20898438 -62.75099945 -25.95098877
lowerback  8.942210197 2.865600109 -2.306659937
upperback  4.017429829 3.386440039 -4.163949966
thorax  -0.7182459831 1.632969975 -3.330790043
lowerneck  1.401970029 5.558390141 -6.802629948
upperneck  11.60459995 6.512169838 9.83273983
head  2.622309923 3.220860004 4.18132019
lclavicle  0 -9.442270133e-015 7.951389973e-016
lhumerus  -7.570789814 -12.6196003 72.186203
lradius  2.821120017e-031 -2.123705697e-031 143.0279999
lwrist  -7.062250077e-031 -1.765562519e-031 13.44400024
lhand  -1.496451383e-031 -27.76390076 20.11240005
lfingers  90 7.125020027 -90
lthumb  89.89689403 5.08795885 91.16245106
rclavicle  0 -9.442270133e-015 7.951389973e-016
rhumerus  -30.39019966 9.378919601 -83.49669647
rradius  -2.220676105e-031 2.745440161e-031 128.9680023
rwrist  7.062250077e-031 -0 -0.1477780044
rhand  -7.920061211e-032 -33.2840004 9.303460121
rfingers  -90 -7.125020027 -90
rthumb  -92.93752616 -24.25625642 -97.11982154
rfemur  0.9776520133 13.40040016 16.08110046
rtibia  -0 0 34.57109833
rfoot  -0 4.033929825 -12.26309967
rtoes  5.373923086 19.29304026 -105.8922705
lfemur  -33.46239853 -3.576930046 5.015699863
ltibia  -0 0 40.72180176
lfoot  4.432820944e-032 5.294819832 -4.241390228
ltoes  -4.250644065 -19.5611806 -102.515957
107
root  -5.59613348 41.24888923 8.424244528 27.28497314 -64.32499695 -26.02801514
lowerback  9.16903019 2.856800079 -2.645910025
upperback  3.923010111 3.331510067 -4.025790215
thorax  -0.9710540175 1.599930048 -3.007689953
lowerneck  0.8421900272 5.721189976 -6.563109875
upperneck  11.82190037 6.823790073 8.9686203
head  2.80092001 3.367840052 3.905200005
lclavicle  0 -9.442270133e-015 7.951389973e-016
lhumerus  -7.864099979 -11.58100033 72.35720062
lradius  2.829032538e-031 -2.113153789e-031 143.2420044
lwrist  0 -0 13.28359985
lhand  -1.496451383e-031 -27.76390076 20.11240005
lfingers  90 7.125020027 -90
lthumb  89.89689403 5.08795885 91.16245106
rclavicle  0 -9.442270133e-015 7.951389973e-016
rhumerus  -29.40019989 9.565999985 -82.63480377
rradius  -2.314532769e-031 2.666792474e-031 130.9550018
rwrist  7.062250077e-031 -3.531125038e-031 -0.5539659858
rhand  -7.920061211e-032 -33.2840004 9.303460121
rfingers  -90 -7.125020027 -90
rthumb  -92.93752616 -24.25625642 -97.11982154
rfemur  0.4234339893 12.93179989 14.77589989
rtibia  -0 0 35.47790146
rfoot  -0 2.361079931 -10.21930027
rtoes  5.373923086 19.29304026 -105.8922705
lfemur  -33.43970108 -3.063970089 4.260039806
ltibia  -0 0 43.16120148
lfoot  4.427052982e-032 4.416679859 -6.173810005
ltoes  -4.250644065 -19.5611806 -102.515957
108
root  -5.425488855 41.05688981 8.372533603 28.25299072 -65.75800323 -27.29302979
lowerback  9.520179749 2.870170116 -2.437880039
upperback  3.818690062 3.349539995 -3.841120005
thorax  -1.271209955 1.610489964 -2.956370115
lowerneck  0.5834910274 5.896949768 -6.272830009
upperneck  11.61180019 7.168330193 8.07131958
head  3.133369923 3.499150038 3.970659971
lclavicle  0 -9.442270133e-015 7.951389973e-016
lhumerus  -8.102689743 -10.59630013 72.30439758
lradius  2.835987565e-031 -2.103810488e-031 143.4309998
lwrist  -1.412450015e-030 -1.765562519e-031 14.09490013
lhand  -1.496451383e-031 -27.76390076 20.11240005
lfingers  90 7.125020027 -90
lthumb  89.89689403 5.08795885 91.16245106
rclavicle  0 -9.442270133e-015 7.951389973e-016
rhumerus  -28.32530022 9.667380333 -81.97280121
rradius  -2.397473031e-031 2.592482806e-031 132.7619934
rwrist  7.062250077e-031 -3.531125038e-031 -1.031749964
rhand  -7.920061211e-032 -33.2840004 9.303460121
rfingers  -90 -7.125020027 -90
rthumb  -92.93752616 -24.25625642 -97.11982154
rfemur  0.03915270045 12.68529987 14.12779999
rtibia  -0 0 36.48210144
rfoot  -0 0.6998900175 -8.562069893
rtoes  5.373923086 19.29304026 -105.8922705
lfemur  -33.19219971 -2.47823 4.078849792
ltibia  -0 0 45.56200027
lfoot  -0 3.327229977 -7.261529922
ltoes  -4.250644065 -19.5611806 -102.515957
109
root  -5.266111104 40.84155466 8.318977656 29.41799927 -67.18499756 -28.87799072
lowerback  9.910869598 2.92505002 -2.153800011
upperback  3.717469931 3.429759979 -3.674129963
thorax  -1.58186996 1.651839972 -2.975430012
lowerneck  0.3749650121 6.032030106 -6.266590118
upperneck  11.74919987 7.364890099 7.946020126
head  3.208719969 3.594120026 3.94197011
lclavicle  0 -9.442270133e-015 7.951389973e-016
lhumerus  -8.319769859 -9.772720337 72.16280365
lradius  2.83954519e-031 -2.099006229e-031 143.5279999
lwrist  -7.062250077e-031 1.765562519e-031 15.20250034
lhand  -1.496451383e-031 -27.76390076 20.11240005
lfingers  90 7.125020027 -90
lthumb  89.89689403 5.08795885 91.16245106
rclavicle  0 -9.442270133e-015 7.951389973e-016
rhumerus  -27.14649963 9.638959885 -81.49549866
rradius  -2.470686487e-031 2.522806437e-031 134.4019928
rwrist  3.531125038e-031 -0 -1.785979986
rhand  -7.920061211e-032 -33.2840004 9.303460121
rfingers  -90 -7.125020027 -90
rthumb  -92.93752616 -24.25625642 -97.11982154
rfemur  -0.301384002 12.47060013 13.60039997
rtibia  -0 0 37.63740158
rfoot  -8.82842402e-032 -0.6743260026 -6.821360111
rtoes  5.373923086 19.29304026 -105.8922705
lfemur  -32.73460007 -2.004909992 3.934170008
ltibia  -0 0 47.77270126
lfoot  -0 1.680289984 -7.389200211
ltoes  -4.250644065 -19.5611806 -102.515957
110
root  -5.118333261 40.62155476 8.266955849 30.54098511 -68.73000336 -30.40600586
lowerback  10.17210007 3.01335001 -2.216340065
upperback  3.661720037 3.5322299 -3.44520998
thorax  -1.798079967 1.70085001 -2.731029987
lowerneck  0.1827930063 6.16147995 -6.368360043
upperneck  12.18710041 7.504700184 8.125340462
head  3.013789892 3.690769911 3.655319929
lclavicle  0 -9.442270133e-015 7.951389973e-016
lhumerus  -8.655480385 -9.05753994 72.29530334
lradius  2.83892234e-031 -2.099848562e-031 143.5110016
lwrist  -7.062250077e-031 -0 15.71560001
lhand  -1.496451383e-031 -27.76390076 20.11240005
lfingers  90 7.125020027 -90
lthumb  89.89689403 5.08795885 91.16245106
rclavicle  0 -9.442270133e-015 7.951389973e-016
rhumerus  -25.77560043 9.745349884 -80.91010284
rradius  -2.536865864e-031 2.456248283e-031 135.9250031
rwrist  7.062250077e-031 -3.531125038e-031 -2.627949953
rhand  -7.920061211e-032 -33.2840004 9.303460121
rfingers  -90 -7.125020027 -90
rthumb  -92.93752616 -24.25625642 -97.11982154
rfemur  -0.6712390184 12.40380001 12.96450043
rtibia  -0 0 38.8905983
rfoot  -4.415738669e-032 -1.650660038 -5.152400017
rtoes  5.373923086 19.29304026 -105.8922705
lfemur  -32.15859985 -1.56201005 3.591769934
ltibia  -0 0 49.67229843
lfoot  8.828056007e-032 -0.4254769981 -6.613520145
ltoes  -4.250644065 -19.5611806 -102.515957
